<svg width="18" height="19" viewBox="0 0 18 19" fill="none" xmlns="http://www.w3.org/2000/svg">
<path d="M8.43729 3.52851H9.22677C9.29694 3.52851 9.33203 3.57475 9.33203 3.66724V15.8758C9.33203 15.9682 9.29694 16.0145 9.22677 16.0145H8.43729C8.36712 16.0145 8.33203 15.9682 8.33203 15.8758V3.66724C8.33203 3.57475 8.36712 3.52851 8.43729 3.52851Z" fill="#128ECC"/>
<path d="M3.09375 9.11252H14.9062C15 9.11252 15.0469 9.14713 15.0469 9.21637V9.99522C15.0469 10.0644 15 10.0991 14.9062 10.0991H3.09375C3 10.0991 2.95312 10.0644 2.95312 9.99522V9.21637C2.95312 9.14713 3 9.11252 3.09375 9.11252Z" fill="#128ECC"/>
</svg>
