<svg width="18" height="18" viewBox="0 0 18 18" fill="none" xmlns="http://www.w3.org/2000/svg">
<path d="M7.2 3.07317H10.8C10.8 2.60742 10.6104 2.16075 10.2728 1.83142C9.93523 1.50209 9.47739 1.31707 9 1.31707C8.52261 1.31707 8.06477 1.50209 7.72721 1.83142C7.38964 2.16075 7.2 2.60742 7.2 3.07317ZM5.85 3.07317C5.85 2.6696 5.93148 2.26997 6.08978 1.89712C6.24808 1.52427 6.48011 1.18548 6.77261 0.900111C7.06512 0.614741 7.41237 0.388373 7.79455 0.233931C8.17672 0.0794899 8.58634 0 9 0C9.41366 0 9.82328 0.0794899 10.2055 0.233931C10.5876 0.388373 10.9349 0.614741 11.2274 0.900111C11.5199 1.18548 11.7519 1.52427 11.9102 1.89712C12.0685 2.26997 12.15 2.6696 12.15 3.07317H17.325C17.504 3.07317 17.6757 3.14255 17.8023 3.26605C17.9289 3.38955 18 3.55705 18 3.73171C18 3.90636 17.9289 4.07386 17.8023 4.19736C17.6757 4.32086 17.504 4.39024 17.325 4.39024H16.137L15.084 15.0243C15.0032 15.8391 14.6142 16.5953 13.9929 17.1455C13.3716 17.6957 12.5625 18.0003 11.7234 18H6.2766C5.43768 18.0001 4.62879 17.6954 4.00765 17.1452C3.38652 16.5951 2.99766 15.839 2.9169 15.0243L1.863 4.39024H0.675C0.495979 4.39024 0.32429 4.32086 0.197703 4.19736C0.0711158 4.07386 0 3.90636 0 3.73171C0 3.55705 0.0711158 3.38955 0.197703 3.26605C0.32429 3.14255 0.495979 3.07317 0.675 3.07317H5.85ZM7.65 7.2439C7.65 7.06925 7.57888 6.90175 7.4523 6.77825C7.32571 6.65475 7.15402 6.58537 6.975 6.58537C6.79598 6.58537 6.62429 6.65475 6.4977 6.77825C6.37112 6.90175 6.3 7.06925 6.3 7.2439V13.8293C6.3 14.0039 6.37112 14.1714 6.4977 14.2949C6.62429 14.4184 6.79598 14.4878 6.975 14.4878C7.15402 14.4878 7.32571 14.4184 7.4523 14.2949C7.57888 14.1714 7.65 14.0039 7.65 13.8293V7.2439ZM11.025 6.58537C11.204 6.58537 11.3757 6.65475 11.5023 6.77825C11.6289 6.90175 11.7 7.06925 11.7 7.2439V13.8293C11.7 14.0039 11.6289 14.1714 11.5023 14.2949C11.3757 14.4184 11.204 14.4878 11.025 14.4878C10.846 14.4878 10.6743 14.4184 10.5477 14.2949C10.4211 14.1714 10.35 14.0039 10.35 13.8293V7.2439C10.35 7.06925 10.4211 6.90175 10.5477 6.77825C10.6743 6.65475 10.846 6.58537 11.025 6.58537ZM4.2606 14.8979C4.30914 15.3866 4.54252 15.8402 4.91523 16.1702C5.28794 16.5003 5.77327 16.683 6.2766 16.6829H11.7234C12.2267 16.683 12.7121 16.5003 13.0848 16.1702C13.4575 15.8402 13.6909 15.3866 13.7394 14.8979L14.7816 4.39024H3.2184L4.2606 14.8979Z" fill="#F55959"/>
</svg>
