<svg width="22" height="22" viewBox="0 0 22 22" fill="none" xmlns="http://www.w3.org/2000/svg">
<path d="M4.44271 8.88449V1.2692Z" fill="#414141" fill-opacity="0.6"/>
<path d="M1.26904 4.44214L4.44212 1.2691L7.6152 4.44214" fill="#414141" fill-opacity="0.6"/>
<path d="M4.44271 8.88449V1.2692M1.26904 4.44214L4.44212 1.2691L7.6152 4.44214" stroke="#414141" stroke-opacity="0.6" stroke-width="2" stroke-linecap="round" stroke-linejoin="round"/>
<path fill-rule="evenodd" clip-rule="evenodd" d="M0.75 11C0.335786 11 0 11.3358 0 11.75V18.25C0 19.2446 0.395088 20.1984 1.09835 20.9017C1.80161 21.6049 2.75544 22 3.75 22H18.25C19.2446 22 20.1984 21.6049 20.9017 20.9017C21.6049 20.1984 22 19.2446 22 18.25V3.75C22 2.75544 21.6049 1.80161 20.9017 1.09835C20.1984 0.395088 19.2446 0 18.25 0H10.5833C10.1691 0 9.83333 0.335786 9.83333 0.75C9.83333 1.16421 10.1691 1.5 10.5833 1.5H18.25C18.8467 1.5 19.419 1.73705 19.841 2.15901C20.2629 2.58097 20.5 3.15326 20.5 3.75V18.25C20.4999 18.7644 19.887 18.8865 19.5192 18.527L12.398 11.567C12.0243 11.2017 11.5225 10.9972 11 10.9972C10.4775 10.9972 9.97568 11.2017 9.602 11.567L2.48092 18.5269C2.11283 18.8867 1.5 18.7647 1.5 18.25V11.75C1.5 11.3358 1.16421 11 0.75 11ZM11.35 12.64L19.1841 20.297C18.9003 20.4268 18.5837 20.5 18.251 20.5H3.751C3.28668 20.5 3.17347 19.9477 3.50555 19.6231L10.651 12.64C10.7444 12.5487 10.8699 12.4976 11.0005 12.4976C11.1311 12.4976 11.2566 12.5487 11.35 12.64Z" fill="#414141" fill-opacity="0.6"/>
<path fill-rule="evenodd" clip-rule="evenodd" d="M17.2678 8.76777C16.7989 9.23661 16.163 9.5 15.5 9.5C14.837 9.5 14.2011 9.23661 13.7322 8.76777C13.2634 8.29893 13 7.66304 13 7C13 6.33696 13.2634 5.70107 13.7322 5.23223C14.2011 4.76339 14.837 4.5 15.5 4.5C16.163 4.5 16.7989 4.76339 17.2678 5.23223C17.7366 5.70107 18 6.33696 18 7C18 7.66304 17.7366 8.29893 17.2678 8.76777ZM14.7929 7.70711C14.9804 7.89464 15.2348 8 15.5 8C15.7652 8 16.0196 7.89464 16.2071 7.70711C16.3946 7.51957 16.5 7.26522 16.5 7C16.5 6.73478 16.3946 6.48043 16.2071 6.29289C16.0196 6.10536 15.7652 6 15.5 6C15.2348 6 14.9804 6.10536 14.7929 6.29289C14.6054 6.48043 14.5 6.73478 14.5 7C14.5 7.26522 14.6054 7.51957 14.7929 7.70711Z" fill="#414141" fill-opacity="0.6"/>
</svg>
